<svg width="64" height="64" viewBox="0 0 64 64" fill="none" xmlns="http://www.w3.org/2000/svg">
<path d="M0.149902 32.0004C0.149902 14.4118 14.4113 0.150391 31.9999 0.150391C49.5885 0.150391 63.8499 14.4118 63.8499 32.0004C63.8499 49.589 49.5885 63.8504 31.9999 63.8504C14.4113 63.8504 0.149902 49.589 0.149902 32.0004ZM5.27847 32.0004C5.27847 46.7547 17.2456 58.7218 31.9999 58.7218C46.7542 58.7218 58.7213 46.7547 58.7213 32.0004C58.7213 17.2461 46.7542 5.27896 31.9999 5.27896C17.2456 5.27896 5.27847 17.2461 5.27847 32.0004Z" fill="#07BEFF" stroke="white" stroke-width="0.3"/>
<path d="M44.3908 41.1649L44.3931 41.1665C44.5791 41.2957 44.6237 41.5567 44.486 41.7479C44.4859 41.7481 44.4858 41.7482 44.4857 41.7483L42.4435 44.5332L42.4428 44.5341C42.3078 44.7211 42.0454 44.761 41.8524 44.6218C41.8524 44.6218 41.8523 44.6217 41.8522 44.6217L30.0385 36.0078L30.0374 36.007C29.9281 35.9289 29.8645 35.8036 29.8645 35.6648V16.0005C29.8645 15.7691 30.0544 15.5791 30.2859 15.5791H33.7216C33.953 15.5791 34.143 15.7691 34.143 16.0005V33.6791V33.7557L34.2051 33.8006L44.3908 41.1649Z" fill="#07BEFF" stroke="white" stroke-width="0.3"/>
</svg>
