<svg width="24" height="24" viewBox="0 0 24 24" fill="none" xmlns="http://www.w3.org/2000/svg">
<g id="wap-home-o">
<g id="&#233;&#166;&#150;&#233;&#161;&#181;">
<path id="&#229;&#189;&#162;&#231;&#138;&#182;" fill-rule="evenodd" clip-rule="evenodd" d="M2.73903 9.72668L11.1323 2.53242C11.6317 2.10443 12.3685 2.10443 12.8678 2.53242L21.2611 9.72668C21.5406 9.96629 21.573 10.3872 21.3334 10.6667C21.0938 10.9463 20.6729 10.9786 20.3934 10.739L20.0001 10.4019L20.0001 20C20.0001 20.7364 19.402 21.3335 18.6643 21.3335H14.6817C13.9439 21.3335 13.3459 20.7365 13.3459 20.0001L13.3466 16L10.6692 16V20C10.6692 20.7364 10.0712 21.3335 9.33347 21.3335H5.33578C4.59808 21.3335 4.00005 20.7364 4.00005 20L4.00006 10.4019L3.60675 10.739C3.3272 10.9786 2.90634 10.9463 2.66672 10.6667C2.42711 10.3872 2.45948 9.96629 2.73903 9.72668ZM18.6642 9.25694L11.9999 3.54471L5.33566 9.25694L5.33564 20L9.33332 20V16C9.33332 15.2636 9.93135 14.6667 10.6691 14.6667L13.3465 14.6666C14.0843 14.6667 14.6823 15.2637 14.6822 16.0001L14.6815 20.0001L18.6642 20L18.6642 9.25694Z" fill="white"/>
</g>
</g>
</svg>
