<svg xmlns="http://www.w3.org/2000/svg" width="21" height="21" viewBox="0 0 21 21" fill="none">
<path d="M10.243 5.36962C9.55819 5.36962 8.99976 4.81531 8.99976 4.13049C8.99976 3.44566 9.55075 2.89136 10.2348 2.89136H10.243C10.9278 2.89136 11.4822 3.44566 11.4822 4.13049C11.4822 4.81531 10.9278 5.36962 10.243 5.36962ZM11.4822 10.7392C11.4822 10.0544 10.9278 9.50005 10.243 9.50005H10.2348C9.55075 9.50005 8.99976 10.0544 8.99976 10.7392C8.99976 11.424 9.55819 11.9783 10.243 11.9783C10.9278 11.9783 11.4822 11.424 11.4822 10.7392ZM11.4822 17.3479C11.4822 16.6631 10.9278 16.1087 10.243 16.1087H10.2348C9.55075 16.1087 8.99976 16.6631 8.99976 17.3479C8.99976 18.0327 9.55819 18.587 10.243 18.587C10.9278 18.587 11.4822 18.0327 11.4822 17.3479Z" fill="#969799"/>
<script xmlns=""/><script xmlns=""/></svg>