<svg width="16" height="16" viewBox="0 0 16 16" fill="none" xmlns="http://www.w3.org/2000/svg">
<g id="&#230;&#137;&#139;&#230;&#156;&#186;&#229;&#143;&#183;/&#233;&#130;&#174;&#231;&#174;&#177;">
<rect id="&#231;&#159;&#169;&#229;&#189;&#162;" opacity="0.01" width="16" height="16" fill="black"/>
<circle id="&#230;&#164;&#173;&#229;&#156;&#134;&#229;&#189;&#162;" cx="8" cy="5" r="4" stroke="#BFBFBF"/>
<path id="&#229;&#189;&#162;&#231;&#138;&#182;" d="M5.80206 8.88071C6.06194 8.78735 6.19693 8.50099 6.10357 8.24111C6.01021 7.98123 5.72385 7.84624 5.46396 7.9396L5.80206 8.88071ZM0.5 14.9998C0.5 15.276 0.723858 15.4998 1 15.4998C1.27614 15.4998 1.5 15.276 1.5 14.9998H0.5ZM14.5 14.9998C14.5 15.276 14.7239 15.4998 15 15.4998C15.2761 15.4998 15.5 15.276 15.5 14.9998H14.5ZM10.5977 7.96207C10.3387 7.86642 10.0511 7.99888 9.95548 8.25793C9.85983 8.51698 9.9923 8.80451 10.2513 8.90016L10.5977 7.96207ZM5.46396 7.9396C2.57054 8.97905 0.5 11.747 0.5 14.9998H1.5C1.5 12.1822 3.29311 9.78204 5.80206 8.88071L5.46396 7.9396ZM15.5 14.9998C15.5 11.7701 13.4588 9.01846 10.5977 7.96207L10.2513 8.90016C12.7324 9.81622 14.5 12.2022 14.5 14.9998H15.5Z" fill="#BFBFBF"/>
<path id="&#232;&#183;&#175;&#229;&#190;&#132; 2" d="M8 12V15" stroke="#BFBFBF" stroke-linecap="round" stroke-linejoin="round"/>
</g>
</svg>
